<svg xmlns="http://www.w3.org/2000/svg" viewBox="0 0 500 500"><g id="freepik--background-simple--inject-4"><path d="M464.86,277.39c-14.73,39.43-44.81,82.11-87.14,94.75-64,19.1-71.6,70.65-186.16,65.87A230.92,230.92,0,0,1,142,430.75,194.41,194.41,0,0,1,118.73,423C51.8,395.89,16.89,336.23,14,273.81c-3.82-82.11,53.46-121.24,90.69-144.15S186.79,18,299.44,21.77a224.06,224.06,0,0,1,50.92,7.44c37.91,10.26,76.44,32.95,98.84,66.12q2.52,3.75,4.82,7.64C484,153.82,484.93,223.63,464.86,277.39Z" style="fill:#92E3A9"></path><path d="M464.86,277.39c-14.73,39.43-44.81,82.11-87.14,94.75-64,19.1-71.6,70.65-186.16,65.87A230.92,230.92,0,0,1,142,430.75,194.41,194.41,0,0,1,118.73,423C51.8,395.89,16.89,336.23,14,273.81c-3.82-82.11,53.46-121.24,90.69-144.15S186.79,18,299.44,21.77a224.06,224.06,0,0,1,50.92,7.44c37.91,10.26,76.44,32.95,98.84,66.12q2.52,3.75,4.82,7.64C484,153.82,484.93,223.63,464.86,277.39Z" style="fill:#fff;opacity:0.7000000000000001"></path></g><g id="freepik--Window--inject-4"><g style="opacity:0.30000000000000004"><path d="M25.73,66.25V294.58H99.9V66.25Zm70.43,5.08V105H65.29V71.33Zm-35.48,0V105H29.46V71.33ZM29.46,110.38H60.68v33.43H29.46Zm66.7,179.13H29.46V149.61h66.7ZM65.29,143.81V110.38H96.16v33.43Z" style="fill:none;stroke:#000;stroke-linecap:round;stroke-linejoin:round"></path><path d="M99.61,66.25V294.58h74.17V66.25ZM170,71.33V105H139.17V71.33Zm-35.48,0V105H103.34V71.33Zm-31.22,39.05h31.22v33.43H103.34ZM170,289.51h-66.7V149.61H170Zm-30.87-145.7V110.38H170v33.43Z" style="fill:none;stroke:#000;stroke-linecap:round;stroke-linejoin:round"></path><line x1="79.56" y1="187.51" x2="60.94" y2="210.69" style="fill:none;stroke:#000;stroke-linecap:round;stroke-linejoin:round"></line><line x1="84.18" y1="181.76" x2="81.22" y2="185.44" style="fill:none;stroke:#000;stroke-linecap:round;stroke-linejoin:round"></line><line x1="40.69" y1="227.59" x2="36.88" y2="232.07" style="fill:none;stroke:#000;stroke-linecap:round;stroke-linejoin:round"></line><line x1="65.42" y1="198.53" x2="43.55" y2="224.23" style="fill:none;stroke:#000;stroke-linecap:round;stroke-linejoin:round"></line><line x1="154.59" y1="194.59" x2="135.97" y2="217.76" style="fill:none;stroke:#000;stroke-linecap:round;stroke-linejoin:round"></line><line x1="159.21" y1="188.84" x2="156.25" y2="192.52" style="fill:none;stroke:#000;stroke-linecap:round;stroke-linejoin:round"></line><line x1="115.72" y1="234.66" x2="111.91" y2="239.15" style="fill:none;stroke:#000;stroke-linecap:round;stroke-linejoin:round"></line><line x1="140.45" y1="205.61" x2="118.58" y2="231.31" style="fill:none;stroke:#000;stroke-linecap:round;stroke-linejoin:round"></line><line x1="163.19" y1="76.63" x2="154.27" y2="87.72" style="fill:none;stroke:#000;stroke-linecap:round;stroke-linejoin:round"></line><line x1="165.4" y1="73.87" x2="163.98" y2="75.64" style="fill:none;stroke:#000;stroke-linecap:round;stroke-linejoin:round"></line><line x1="144.58" y1="95.81" x2="142.76" y2="97.95" style="fill:none;stroke:#000;stroke-linecap:round;stroke-linejoin:round"></line><line x1="156.42" y1="81.9" x2="145.95" y2="94.2" style="fill:none;stroke:#000;stroke-linecap:round;stroke-linejoin:round"></line><line x1="128.41" y1="76.63" x2="119.49" y2="87.72" style="fill:none;stroke:#000;stroke-linecap:round;stroke-linejoin:round"></line><line x1="130.62" y1="73.87" x2="129.2" y2="75.64" style="fill:none;stroke:#000;stroke-linecap:round;stroke-linejoin:round"></line><line x1="109.8" y1="95.81" x2="107.98" y2="97.95" style="fill:none;stroke:#000;stroke-linecap:round;stroke-linejoin:round"></line><line x1="121.64" y1="81.9" x2="111.17" y2="94.2" style="fill:none;stroke:#000;stroke-linecap:round;stroke-linejoin:round"></line><line x1="128.41" y1="118.18" x2="119.49" y2="129.28" style="fill:none;stroke:#000;stroke-linecap:round;stroke-linejoin:round"></line><line x1="130.62" y1="115.43" x2="129.2" y2="117.19" style="fill:none;stroke:#000;stroke-linecap:round;stroke-linejoin:round"></line><line x1="109.8" y1="137.37" x2="107.98" y2="139.51" style="fill:none;stroke:#000;stroke-linecap:round;stroke-linejoin:round"></line><line x1="121.64" y1="123.46" x2="111.17" y2="135.76" style="fill:none;stroke:#000;stroke-linecap:round;stroke-linejoin:round"></line><line x1="159.43" y1="118.18" x2="150.51" y2="129.28" style="fill:none;stroke:#000;stroke-linecap:round;stroke-linejoin:round"></line><line x1="161.64" y1="115.43" x2="160.22" y2="117.19" style="fill:none;stroke:#000;stroke-linecap:round;stroke-linejoin:round"></line><line x1="140.82" y1="137.37" x2="139" y2="139.51" style="fill:none;stroke:#000;stroke-linecap:round;stroke-linejoin:round"></line><line x1="152.66" y1="123.46" x2="142.19" y2="135.76" style="fill:none;stroke:#000;stroke-linecap:round;stroke-linejoin:round"></line><line x1="89.87" y1="76.63" x2="80.95" y2="87.72" style="fill:none;stroke:#000;stroke-linecap:round;stroke-linejoin:round"></line><line x1="92.08" y1="73.87" x2="90.66" y2="75.64" style="fill:none;stroke:#000;stroke-linecap:round;stroke-linejoin:round"></line><line x1="71.26" y1="95.81" x2="69.44" y2="97.95" style="fill:none;stroke:#000;stroke-linecap:round;stroke-linejoin:round"></line><line x1="83.1" y1="81.9" x2="72.63" y2="94.2" style="fill:none;stroke:#000;stroke-linecap:round;stroke-linejoin:round"></line><line x1="89.87" y1="117.22" x2="80.95" y2="128.31" style="fill:none;stroke:#000;stroke-linecap:round;stroke-linejoin:round"></line><line x1="92.08" y1="114.46" x2="90.66" y2="116.23" style="fill:none;stroke:#000;stroke-linecap:round;stroke-linejoin:round"></line><line x1="71.26" y1="136.4" x2="69.44" y2="138.54" style="fill:none;stroke:#000;stroke-linecap:round;stroke-linejoin:round"></line><line x1="83.1" y1="122.49" x2="72.63" y2="134.79" style="fill:none;stroke:#000;stroke-linecap:round;stroke-linejoin:round"></line><line x1="56.03" y1="117.22" x2="47.11" y2="128.31" style="fill:none;stroke:#000;stroke-linecap:round;stroke-linejoin:round"></line><line x1="58.24" y1="114.46" x2="56.82" y2="116.23" style="fill:none;stroke:#000;stroke-linecap:round;stroke-linejoin:round"></line><line x1="37.42" y1="136.4" x2="35.6" y2="138.54" style="fill:none;stroke:#000;stroke-linecap:round;stroke-linejoin:round"></line><line x1="49.26" y1="122.49" x2="38.79" y2="134.79" style="fill:none;stroke:#000;stroke-linecap:round;stroke-linejoin:round"></line><line x1="53.68" y1="76.63" x2="44.76" y2="87.72" style="fill:none;stroke:#000;stroke-linecap:round;stroke-linejoin:round"></line><line x1="55.89" y1="73.87" x2="54.47" y2="75.64" style="fill:none;stroke:#000;stroke-linecap:round;stroke-linejoin:round"></line><line x1="35.07" y1="95.81" x2="33.25" y2="97.95" style="fill:none;stroke:#000;stroke-linecap:round;stroke-linejoin:round"></line><line x1="46.91" y1="81.9" x2="36.44" y2="94.2" style="fill:none;stroke:#000;stroke-linecap:round;stroke-linejoin:round"></line></g></g><g id="freepik--Sofa--inject-4"><path d="M446.23,346.19V271.34a12.43,12.43,0,0,0-12.44-12.44H320.07v88.16" style="fill:none;stroke:#263238;stroke-linejoin:round"></path><path d="M321,258.9H205.19a12.43,12.43,0,0,0-12.43,12.44v74.85" style="fill:none;stroke:#263238;stroke-linejoin:round"></path><path d="M457.47,354.46v29.11H320.13V346.19H449.2A8.28,8.28,0,0,1,457.47,354.46Z" style="fill:none;stroke:#263238;stroke-linejoin:round"></path><path d="M321.18,346.19H189.8a8.27,8.27,0,0,0-8.27,8.27v29.11H321.18" style="fill:none;stroke:#263238;stroke-linejoin:round"></path><rect x="181.53" y="383.57" width="276.17" height="46.9" style="fill:none;stroke:#263238;stroke-linejoin:round"></rect><path d="M192.76,296.52a8.34,8.34,0,0,0-6-2.57h-25a8.34,8.34,0,0,0-8.35,8.34V422.14a8.34,8.34,0,0,0,8.35,8.33h25" style="fill:none;stroke:#263238;stroke-linejoin:round"></path><path d="M449.36,430.47h25a8.34,8.34,0,0,0,8.34-8.33V302.29a8.34,8.34,0,0,0-8.34-8.34h-25a8.17,8.17,0,0,0-3.13.62" style="fill:none;stroke:#263238;stroke-linejoin:round"></path></g><g id="freepik--Floor--inject-4"><line x1="12" y1="431.05" x2="487.22" y2="431.05" style="fill:none;stroke:#263238;stroke-miterlimit:10"></line></g><g id="freepik--box-3--inject-4"><rect x="228.86" y="289.53" width="29.48" height="41.51" style="fill:#fff;stroke:#263238;stroke-miterlimit:10"></rect><rect x="230.46" y="291.78" width="26.28" height="37" style="fill:#fff;stroke:#263238;stroke-miterlimit:10"></rect><rect x="237.93" y="302.29" width="11.35" height="15.98" style="fill:#cfcfcf;stroke:#263238;stroke-miterlimit:10"></rect><path d="M287.47,276.45s-4.88-1.95-7.81-3.25a7.77,7.77,0,0,1-3.9-3.57l-17.07,55.11,8,2.12Z" style="fill:#fff;stroke:#263238;stroke-miterlimit:10"></path><path d="M258.69,324.74l23.41-57.06s-.49-1,4.39,1.95,5.85,9.75,5.85,9.75L267,328.16Z" style="fill:#fff;stroke:#263238;stroke-miterlimit:10"></path><rect x="222.08" y="316.56" width="73.58" height="48.38" style="fill:#cfcfcf;stroke:#263238;stroke-miterlimit:10"></rect><rect x="257.86" y="316.56" width="37.8" height="48.38" style="fill:#cfcfcf;stroke:#263238;stroke-miterlimit:10"></rect></g><g id="freepik--box-2--inject-4"><rect x="213.38" y="364.9" width="90.35" height="76.67" style="fill:#cfcfcf;stroke:#263238;stroke-miterlimit:10"></rect><rect x="257.31" y="364.9" width="46.42" height="76.67" style="fill:#cfcfcf;stroke:#263238;stroke-miterlimit:10"></rect></g><g id="freepik--Plant--inject-4"><ellipse cx="63.81" cy="294.28" rx="8.4" ry="22.04" style="fill:#92E3A9;stroke:#263238;stroke-miterlimit:10"></ellipse><ellipse cx="83.4" cy="278.62" rx="15.71" ry="6.84" transform="translate(-207.39 273.74) rotate(-72.37)" style="fill:#92E3A9;stroke:#263238;stroke-miterlimit:10"></ellipse><path d="M28.26,330.55c-8.56-1.45-15-5.64-14.35-9.37s8.07-5.56,16.63-4.11,15,5.64,14.35,9.36S36.81,332,28.26,330.55Z" style="fill:#92E3A9;stroke:#263238;stroke-miterlimit:10"></path><ellipse cx="91.91" cy="304.2" rx="18.22" ry="8.4" transform="translate(-187.56 152.93) rotate(-44.76)" style="fill:#92E3A9;stroke:#263238;stroke-miterlimit:10"></ellipse><path d="M48.6,290.73c6.91,10,9,20.59,4.6,23.61s-13.51-2.68-20.42-12.7-9-20.59-4.6-23.6S41.69,280.71,48.6,290.73Z" style="fill:#92E3A9;stroke:#263238;stroke-miterlimit:10"></path><line x1="64.4" y1="315.23" x2="65.05" y2="345.53" style="fill:none;stroke:#263238;stroke-linecap:round;stroke-miterlimit:10"></line><line x1="63.61" y1="286.09" x2="64.4" y2="315.23" style="fill:none;stroke:#263238;stroke-linecap:round;stroke-miterlimit:10"></line><line x1="63.67" y1="281.33" x2="63.61" y2="283.56" style="fill:none;stroke:#263238;stroke-linecap:round;stroke-miterlimit:10"></line><path d="M53.17,312.9a84.86,84.86,0,0,1,8.3,31.81" style="fill:none;stroke:#263238;stroke-linecap:round;stroke-miterlimit:10"></path><path d="M38.73,290.82A99.65,99.65,0,0,1,53.17,312.9" style="fill:none;stroke:#263238;stroke-linecap:round;stroke-miterlimit:10"></path><path d="M34.19,286s.87.79,2.3,2.32" style="fill:none;stroke:#263238;stroke-linecap:round;stroke-miterlimit:10"></path><path d="M79.5,316a99.53,99.53,0,0,0-13.63,27" style="fill:none;stroke:#263238;stroke-linecap:round;stroke-miterlimit:10"></path><path d="M89.17,304.91A78.68,78.68,0,0,0,79.5,316" style="fill:none;stroke:#263238;stroke-linecap:round;stroke-miterlimit:10"></path><path d="M99.49,297a43.58,43.58,0,0,0-7.36,5.21" style="fill:none;stroke:#263238;stroke-linecap:round;stroke-miterlimit:10"></path><path d="M79.15,291.54c-4.66,14.65-10.91,36.3-13.83,55.1" style="fill:none;stroke:#263238;stroke-linecap:round;stroke-miterlimit:10"></path><path d="M82,282.85c-.83,2.47-1.79,5.41-2.83,8.69" style="fill:none;stroke:#263238;stroke-linecap:round;stroke-miterlimit:10"></path><path d="M84.89,274.44s-.82,2.25-2.13,6.09" style="fill:none;stroke:#263238;stroke-linecap:round;stroke-miterlimit:10"></path><path d="M44.46,324.4a23.05,23.05,0,0,1,14.25,14.52" style="fill:none;stroke:#263238;stroke-linecap:round;stroke-miterlimit:10"></path><path d="M33.71,322.22a36.67,36.67,0,0,1,10.75,2.18" style="fill:none;stroke:#263238;stroke-linecap:round;stroke-miterlimit:10"></path><path d="M26.75,322.39s1-.15,2.74-.22" style="fill:none;stroke:#263238;stroke-linecap:round;stroke-miterlimit:10"></path><path d="M101.46,330.55c8.55-1.45,15-5.64,14.35-9.37s-8.08-5.56-16.63-4.11-15,5.64-14.35,9.36S92.91,332,101.46,330.55Z" style="fill:#92E3A9;stroke:#263238;stroke-miterlimit:10"></path><path d="M85.44,324.33A23.1,23.1,0,0,0,71,338.92" style="fill:none;stroke:#263238;stroke-linecap:round;stroke-miterlimit:10"></path><path d="M96.9,322.17a37.61,37.61,0,0,0-11.46,2.16" style="fill:none;stroke:#263238;stroke-linecap:round;stroke-miterlimit:10"></path><path d="M103,322.39s-.69-.1-1.86-.17" style="fill:none;stroke:#263238;stroke-linecap:round;stroke-miterlimit:10"></path><path d="M85.32,364.67a40.75,40.75,0,0,0,4-17.35,35.85,35.85,0,0,0-1.59-10.6H42.94a35.85,35.85,0,0,0-1.59,10.6,40.75,40.75,0,0,0,4,17.35Z" style="fill:#263238"></path><path d="M41.79,341.68c-.13.81-.22,1.64-.3,2.48H89.15c-.07-.84-.17-1.67-.3-2.48Z" style="fill:#7a7a7a"></path><path d="M88.65,354.35c.15-.82.28-1.65.37-2.48H41.62c.1.83.23,1.66.38,2.48Z" style="fill:#7a7a7a"></path><path d="M47.14,347.46a1.93,1.93,0,1,1-1.93-1.93A1.93,1.93,0,0,1,47.14,347.46Z" style="fill:#8c8c8c"></path><path d="M56.78,347.46a1.93,1.93,0,1,1-1.93-1.93A1.92,1.92,0,0,1,56.78,347.46Z" style="fill:#8c8c8c"></path><path d="M66.43,347.46a1.93,1.93,0,1,1-1.93-1.93A1.93,1.93,0,0,1,66.43,347.46Z" style="fill:#8c8c8c"></path><path d="M76.07,347.46a1.93,1.93,0,1,1-1.93-1.93A1.92,1.92,0,0,1,76.07,347.46Z" style="fill:#8c8c8c"></path><path d="M85.71,347.46a1.93,1.93,0,1,1-1.93-1.93A1.92,1.92,0,0,1,85.71,347.46Z" style="fill:#8c8c8c"></path></g><g id="freepik--box-1--inject-4"><rect x="33.67" y="364.9" width="90.35" height="76.67" style="fill:#cfcfcf;stroke:#263238;stroke-miterlimit:10"></rect><rect x="77.6" y="364.9" width="46.42" height="76.67" style="fill:#cfcfcf;stroke:#263238;stroke-miterlimit:10"></rect></g><g id="freepik--character-2--inject-4"><rect x="337.33" y="124.13" width="51.4" height="72.37" style="fill:#fff;stroke:#263238;stroke-miterlimit:10"></rect><rect x="340.13" y="128.06" width="45.81" height="64.51" style="fill:#fff;stroke:#263238;stroke-miterlimit:10"></rect><rect x="353.14" y="146.39" width="19.79" height="27.86" style="fill:#cfcfcf;stroke:#263238;stroke-miterlimit:10"></rect><path d="M341.72,211.75l-7.81-5.21,2.93-38a12.78,12.78,0,0,0,1.3-4.23,42.89,42.89,0,0,0-.65-5.2s1.95-3.9,1-4.88-2,.65-2,.65l.15-2.89s-5.35,4.84-5.35,6.79,2.28,12.36,2.28,12.36-8.78,28-10.41,33.49a53.42,53.42,0,0,0-1.95,9.11L344,225.08Z" style="fill:#fff;stroke:#263238;stroke-miterlimit:10"></path><path d="M336.51,154.84s-2.37,4.35-2.37,5.86v3.54" style="fill:#fff;stroke:#263238;stroke-miterlimit:10"></path><path d="M333.91,206.54s-4.14-3-6.58-.57" style="fill:#fff;stroke:#263238;stroke-miterlimit:10"></path><path d="M391.47,206.71l4.14-7.81s-1.46-8.78-2.19-14.88S391,165.9,391,165.9s-1.71-4.07-1.71-6.26a15.5,15.5,0,0,0-1.46-5.61c-.49-1.22-2.44-3.66-1-4.64l1.46-1L389,147l5.61,4.64.49,1.22c.48,1.22.48,12.68.48,12.68s8.05,25.36,9.76,29,2.68,6.34,2.19,9.27-2.68,9-7.8,12.19S391.47,206.71,391.47,206.71Z" style="fill:#fff;stroke:#263238;stroke-miterlimit:10"></path><path d="M396.59,198.66s2-3.42,7.07-1" style="fill:#fff;stroke:#263238;stroke-miterlimit:10"></path><path d="M386.84,149.39s3.17,4.64,3.9,5.13a9,9,0,0,1,1.7,1.95" style="fill:#fff;stroke:#263238;stroke-miterlimit:10"></path><path d="M359.6,184.43s-4.55-1.62-3.9,3.9,5.53,5.21,5.53,5.21,1.62,7.15,2.92,7.8l1.3.65-1.3,7.8a54.17,54.17,0,0,1-6.17,1.63c-1,0-8.46-.32-9.76-.32s-8.13-1-8.13-1a11.19,11.19,0,0,0-1.62,7.48c.65,4.23,1.62,6.5,2.27,7.48a8.49,8.49,0,0,1,1,2.27l5.2,2,5.85,38.38h38.7l4.55-45.2,6.5-5.21a40.78,40.78,0,0,0-1.95-9.75c-1.62-4.55-8.45-3.58-8.45-3.58l-2.6,2.28s-5.2,1.3-6.18,1.62l-3.9,1.3-.65-8.45-11.06-17.88Z" style="fill:#fff;stroke:#263238;stroke-miterlimit:10"></path><path d="M388.22,179.23s-2.93-11.71-10.73-15.29-16.26,1.63-19.19,8.46,1.95,15.93,1.95,15.93,4.55,13.34,8.78,15.29,11.38-.65,15.29-5.86S388.54,184.43,388.22,179.23Z" style="fill:#263238;stroke:#263238;stroke-miterlimit:10"></path><ellipse cx="390.98" cy="176.63" rx="11.54" ry="10.73" style="fill:#263238;stroke:#263238;stroke-miterlimit:10"></ellipse><path d="M396,222.48l6.5-5.21a40.78,40.78,0,0,0-1.95-9.75c-1.62-4.55-8.45-3.58-8.45-3.58l-2.6,2.28s-5.2,1.3-6.18,1.62L379.9,209c-1.2,1.53-4.13,4.72-8.19,5.28-4.51.61-8-2.91-9-4.05a33.23,33.23,0,0,1-4.76,1.2c-1,0-8.46-.32-9.76-.32s-8.13-1-8.13-1a11.19,11.19,0,0,0-1.62,7.48c.65,4.23,1.62,6.5,2.27,7.48a8.49,8.49,0,0,1,1,2.27l5.2,2,5.85,38.38h38.7Z" style="fill:#263238;stroke:#263238;stroke-miterlimit:10"></path><path d="M344,322s3.91,38,3.91,48.78,1,28.61,1.62,37.07S352.45,429,352.45,429s-1.63-.65-2.28,2.28-1,3.57-3.9,4.55-5.2,2.93-3.9,4.55,8.45,2.28,13.65,3.58,5.86-.33,5.86-3.9V429.61s3.57-55.28,3.57-57.23,1.31-48.45,1.31-48.45Z" style="fill:#fff;stroke:#263238;stroke-miterlimit:10"></path><path d="M353.64,325.85l12.8,9.51c.18-6.6.32-11.43.32-11.43L352,322.66Z" style="fill:#263238;stroke:#263238;stroke-miterlimit:10"></path><path d="M356,443.92c5.21,1.3,5.86-.33,5.86-3.9V429.61c-4.23-2.27-6.18,4.55-7.48,3.9s-1.95-4.55-1.95-4.55-1.63-.65-2.28,2.28-1,3.57-3.9,4.55-5.2,2.93-3.9,4.55S350.82,442.62,356,443.92Z" style="fill:#fff;stroke:#263238;stroke-miterlimit:10"></path><path d="M375.86,323s3.9,31.87,4.23,38.38S400.25,427,400.25,427s1.95,9.76,2.93,12.68,1.62,3.58,3.57,3.58,8.13,0,8.78-2.6-3.25-10.41-4.23-13-2.6-5.2-2.6-6.5-4.87-32.85-7.15-43.58S396,361.33,396,361.33l6.5-44.23Z" style="fill:#fff;stroke:#263238;stroke-miterlimit:10"></path><path d="M401.66,323l-11.57-3.16L375.86,323s.65,5.3,1.44,12l24.15-10.55Z" style="fill:#263238;stroke:#263238;stroke-miterlimit:10"></path><path d="M406.75,443.27c1.95,0,8.13,0,8.78-2.6s-3.25-10.41-4.23-13c-.82-2.2-2.1-4.38-2.48-5.8-8.29-2.92-8.57,5.15-8.57,5.15s1.95,9.76,2.93,12.68S404.8,443.27,406.75,443.27Z" style="fill:#fff;stroke:#263238;stroke-miterlimit:10"></path><path d="M409,435.46c-4.16.34-5.51,2.38-5.84,4.28,1,2.88,1.62,3.53,3.56,3.53s8.13,0,8.78-2.6A8,8,0,0,0,415,437,8.18,8.18,0,0,0,409,435.46Z" style="fill:#fff;stroke:#263238;stroke-miterlimit:10"></path><path d="M359.6,211.1s2.6,30.24,1.3,34.46-13.65,19.51-13.65,19.51l.32,10.08s-4.55,5.53-6.18,15.29-3.57,32.84-3.57,32.84,12.35,2.6,19.83,3.9,11.06.33,11.06.33L372,316.78l1.62,10.73a121.29,121.29,0,0,0,16.91,1.3c8.78,0,15.29-7.16,15.29-7.16s-3.26-21.13-3.26-23.41-7.47-27-7.47-27l.32-12.35s-2.28-2.93-6.18-7.16S383,240.69,383,240.69l3.26-33.17-2.93.32-3.9,32.2-14.31-.33-2.39-29.49Z" style="fill:#92E3A9;stroke:#263238;stroke-miterlimit:10"></path><line x1="360.77" y1="278.48" x2="390.21" y2="273.71" style="fill:#fff;stroke:#263238;stroke-miterlimit:10"></line><line x1="358.38" y1="274.5" x2="367.4" y2="272.91" style="fill:#fff;stroke:#263238;stroke-miterlimit:10"></line><line x1="371.96" y1="316.78" x2="371.96" y2="309.62" style="fill:#fff;stroke:#263238;stroke-miterlimit:10"></line><line x1="365.78" y1="308.97" x2="377.81" y2="308.97" style="fill:#fff;stroke:#263238;stroke-miterlimit:10"></line></g><g id="freepik--character-1--inject-4"><path d="M108.52,431.24s-9.43,13.49-9.43,15.44a3,3,0,0,0,1.71,2.69h20a6.65,6.65,0,0,0,1.71-4.39c0-2.69-.33-13.09-.33-13.09Z" style="fill:#fff;stroke:#263238;stroke-miterlimit:10"></path><path d="M100.8,449.37h20a6.61,6.61,0,0,0,1.46-2.69H99.09A3,3,0,0,0,100.8,449.37Z" style="fill:#fff;stroke:#263238;stroke-miterlimit:10"></path><path d="M108.52,288.16V431.24l13.66.65L136.81,321l2.61,114s3.57-3.25,7.47-3.9a59.64,59.64,0,0,1,8.46-.66l.32-5.85-.65-6.83,7.16-125.35Z" style="fill:#263238;stroke:#263238;stroke-miterlimit:10"></path><path d="M121,180l.17,18.86S102,210,100.76,212.26s6.63,78.1,6.63,80.29S111,295,115,295.72s23.41,2.2,30.48,1.95,14.88-1.95,16.34-2.92,2.93-74.63,1.71-79-25.12-15.37-25.12-15.37l.49-6.82Z" style="fill:#fff;stroke:#263238;stroke-miterlimit:10"></path><line x1="115.19" y1="233.78" x2="121.53" y2="222.56" style="fill:none;stroke:#263238;stroke-miterlimit:10"></line><line x1="112.75" y1="237.43" x2="122.99" y2="228.17" style="fill:none;stroke:#263238;stroke-miterlimit:10"></line><path d="M138.36,200.36l.49-6.82L121,180l.17,18.86s-1.47.85-3.61,2.12c3,5.08,9.2,13.69,16.14,12.3,5.25-1,9.31-5.51,11.93-9.39C141.55,201.83,138.36,200.36,138.36,200.36Z" style="fill:#fff;stroke:#263238;stroke-miterlimit:10"></path><polygon points="121.17 195.44 138.85 193.54 121.03 180.01 121.17 195.44" style="fill:#263238;stroke:#263238;stroke-miterlimit:10"></polygon><rect x="138.93" y="243.83" width="71.85" height="60.97" style="fill:#cfcfcf;stroke:#263238;stroke-miterlimit:10"></rect><rect x="173.86" y="243.83" width="36.91" height="60.97" style="fill:#cfcfcf;stroke:#263238;stroke-miterlimit:10"></rect><rect x="144.55" y="204.94" width="58.64" height="38.56" style="fill:#cfcfcf;stroke:#263238;stroke-miterlimit:10"></rect><rect x="173.06" y="204.94" width="30.13" height="38.56" style="fill:#cfcfcf;stroke:#263238;stroke-miterlimit:10"></rect><path d="M105.92,209.14a9.68,9.68,0,0,0-8.53,5.37c-2.93,5.61-2.2,13.41-1,17.56s9.76,23.17,12.44,27.8,10.24,13.66,10.24,13.66,21.46,28.78,22.44,30.24,2.68,2.68,3.9,2.68h2.68a3.12,3.12,0,0,0,2.93,1.71c2-.24,3.66-2.44,3.66-2.44s-2.44-2.44-2.68-4.15a1.69,1.69,0,0,1,1.46-1.95,6.93,6.93,0,0,0,3.41,0c1.71-.48,3.91-1.95,1.47-2.68a11.83,11.83,0,0,0-4.39-.49s-2.93-1.95-5.37-1.95a19.25,19.25,0,0,1-5.61-1.22s-12.68-28.53-15.36-31.95a30.33,30.33,0,0,1-4.15-7.56l-9.75-35.36" style="fill:#fff;stroke:#263238;stroke-miterlimit:10"></path><path d="M104.2,209.32a9.66,9.66,0,0,0-6.81,5.19c-2.93,5.61-2.2,13.41-1,17.56.19.65.56,1.66,1.06,2.93,3.21-2.72,9.44-5.81,20-3.07l-3.31-12" style="fill:none;stroke:#263238;stroke-miterlimit:10"></path><path d="M155.35,430.42s6.91,6.51,11.06,9.19,8.77,5.12,8.77,5.85v4.15H138.85l.57-14.63S145.76,426.12,155.35,430.42Z" style="fill:#fff;stroke:#263238;stroke-miterlimit:10"></path><path d="M175.18,446.68H139l-.11,2.93h36.33Z" style="fill:#fff;stroke:#263238;stroke-miterlimit:10"></path><path d="M145.21,159.12s2.54,10.73,2.54,11.86-1.69,3.39-1.69,3.39,2.82,6.78,2.82,7.62-2.82,3.11-2.82,3.11-2,11-3.11,11.86-12.43-4.23-15-5.36-6.5-8.76-6.5-8.76a16.19,16.19,0,0,1-5.36-5.08c-2.54-3.67-.28-6.78,2.26-8.76s5.36-11.3,5.36-11.3-.28-3.67.57-3.95,10.73-.28,12.71-.28S145.21,159.12,145.21,159.12Z" style="fill:#fff;stroke:#263238;stroke-miterlimit:10"></path><path d="M138.18,171.27s1.88-1.65,5.7-1" style="fill:none;stroke:#263238;stroke-miterlimit:10"></path><path d="M142.17,174.72c0,1-.27,1.77-.61,1.77s-.62-.79-.62-1.77.28-1.76.62-1.76S142.17,173.75,142.17,174.72Z" style="fill:#263238"></path><path d="M143.58,188.12s-5.64,0-7.57-3.35" style="fill:none;stroke:#263238;stroke-miterlimit:10"></path><path d="M128.83,161.94s2.54,1.41,1.13,3.11-5.09,2.26-5.09,3.39v6.21c0,1.13.85,2.54-.84,2.54s-2.55-2.82-2.55-2.82a5,5,0,0,0-3.67-2h-2.26s-2.82-12.43-1.69-15.82,9.32-10.45,19.2-10.45,15.54,4,15.54,8.19-3.95,6.22-3.95,6.22H128Z" style="fill:#263238;stroke:#263238;stroke-miterlimit:10"></path></g></svg>