<?xml version="1.0" encoding="UTF-8" standalone="no"?>
<svg viewBox="0 0 255 516" version="1.1" xmlns="http://www.w3.org/2000/svg">
  <g transform="matrix(1,0,0,1.00279,-197.9,-68.3901)">
    <rect x="197.9" y="68.2" width="254.2" height="514.5" style="fill: transparent" />
    <clipPath id="_clip1">
      <rect x="197.9" y="68.2" width="254.2" height="514.5" />
    </clipPath>
    <g clip-path="url(#_clip1)">
      <g transform="matrix(1,0,0,0.997221,0.9,1.81879)">
        <path
          d="M450,222.5L450,107.9C450,85.4 432,67.1 409.8,67.1L241.7,67.1C219.5,67.1 201.5,85.4 201.5,107.9L201.5,175.9L200.3,175.9C199,175.9 198,176.9 198,178.2L198,193.7C198,195 199.1,196 200.3,196L201.5,196L201.5,213.2L200.4,213.2C199.1,213.2 197.9,214.3 197.9,215.6L197.9,247.9C197.9,249.2 199,250.3 200.4,250.3L201.5,250.3L201.5,261.1L200.5,261.1C199.1,261.1 198,262.2 198,263.6L198,295.8C198,297.2 199.1,298.3 200.5,298.3L201.5,298.3L201.5,541.9C201.5,564.4 219.5,582.7 241.7,582.7L409.8,582.7C432,582.7 450,564.4 450,541.9L450,282.3C451.2,282.1 452.1,281.1 452.1,279.8L452.1,224.9C452.1,223.8 451.2,222.7 450,222.5ZM201.5,297.4L200.5,297.4C199.7,297.4 199,296.7 199,295.9L199,263.7C199,262.8 199.7,262.2 200.5,262.2L201.5,262.2L201.5,297.4ZM201.5,249.4L200.4,249.4C199.6,249.4 198.9,248.8 198.9,248L198.9,215.7C198.9,214.9 199.5,214.3 200.4,214.3L201.5,214.3L201.5,249.4ZM201.5,195.1L200.3,195.1C199.6,195.1 199,194.5 199,193.8L199,178.3C199,177.6 199.6,177 200.3,177L201.5,177L201.5,195.1ZM350.3,68.2C349.9,69.2 349,69.9 347.8,69.9L302.3,69.9C301.2,69.9 300.2,69.2 299.8,68.2L350.3,68.2ZM449,542C449,564 431.4,581.8 409.8,581.8L241.7,581.8C220,581.8 202.5,564 202.5,542L202.5,107.9C202.5,85.9 220.1,68.1 241.7,68.1L298.9,68.1C299.3,69.7 300.7,70.8 302.4,70.8L347.9,70.8C349.6,70.8 351,69.6 351.4,68.1L409.8,68.1C431.4,68.1 449,85.9 449,107.9L449,542ZM451.1,279.9C451.1,280.6 450.6,281.2 450,281.4L450,223.5C450.6,223.7 451.1,224.3 451.1,225L451.1,279.9Z"
          style="fill: rgb(46, 47, 47); fill-rule: nonzero"
        />
      </g>
      <g transform="matrix(1,0,0,0.997221,0.9,1.81879)">
        <path
          d="M409.8,68.2L351.4,68.2C351,69.8 349.6,70.9 347.9,70.9L302.4,70.9C300.7,70.9 299.3,69.7 298.9,68.2L241.7,68.2C220,68.2 202.5,86 202.5,108L202.5,542.1C202.5,564.1 220.1,581.9 241.7,581.9L409.8,581.9C431.4,581.9 449,564.1 449,542.1L449,107.9C449,86 431.4,68.2 409.8,68.2ZM440,540.2C440,557.1 426.2,570.8 409.2,570.8L242.3,570.8C225.3,570.8 211.5,557.1 211.5,540.2L211.5,108.1C211.5,91.2 225.3,77.5 242.3,77.5L409.2,77.5C426.2,77.5 440,91.2 440,108.1L440,540.2Z"
          style="fill: rgb(217, 217, 217); fill-rule: nonzero"
        />
      </g>
      <g transform="matrix(1,0,0,0.997221,0.9,1.81879)">
        <path
          d="M409.2,77.5L242.3,77.5C225.3,77.5 211.5,91.2 211.5,108.1L211.5,540.2C211.5,557.1 225.3,570.8 242.3,570.8L409.2,570.8C426.2,570.8 440,557.1 440,540.2L440,108.1C440,91.2 426.2,77.5 409.2,77.5ZM439,540.2C439,556.5 425.7,569.8 409.2,569.8L242.3,569.8C225.8,569.8 212.5,556.6 212.5,540.2L212.5,108.1C212.5,91.8 225.8,78.5 242.3,78.5L409.2,78.5C425.7,78.5 439,91.7 439,108.1L439,540.2Z"
          style="fill: rgb(46, 47, 47); fill-rule: nonzero"
        />
      </g>
      <g transform="matrix(1,0,0,0.997221,0.9,1.81879)">
        <path
          d="M409.2,78.5L242.3,78.5C225.8,78.5 212.5,91.7 212.5,108.1L212.5,540.2C212.5,556.5 225.8,569.8 242.3,569.8L409.2,569.8C425.7,569.8 439,556.6 439,540.2L439,108.1C439,91.8 425.6,78.5 409.2,78.5ZM353.2,103.6L298.3,103.6C292.9,103.6 288.5,99.2 288.5,93.8C288.5,88.4 292.9,84 298.3,84L353.2,84C358.6,84 363,88.4 363,93.8C363,99.2 358.6,103.6 353.2,103.6Z"
          style="fill: none; fill-rule: nonzero"
        />
      </g>
      <g transform="matrix(1,0,0,0.997221,0.9,1.81879)">
        <path
          d="M353.2,84.1L298.3,84.1C292.9,84.1 288.5,88.5 288.5,93.9C288.5,99.3 292.9,103.7 298.3,103.7L353.2,103.7C358.6,103.7 363,99.3 363,93.9C363,88.5 358.6,84.1 353.2,84.1ZM353.2,102.6L298.3,102.6C293.5,102.6 289.5,98.7 289.5,93.8C289.5,89 293.4,85 298.3,85L353.2,85C358,85 362,88.9 362,93.8C361.9,98.7 358,102.6 353.2,102.6Z"
          style="fill: rgb(46, 47, 47)"
        />
      </g>
      <g transform="matrix(1,0,0,0.997221,0.9,1.81879)">
        <path
          d="M353.2,85.1L298.3,85.1C293.5,85.1 289.5,89 289.5,93.9C289.5,98.7 293.4,102.7 298.3,102.7L353.2,102.7C358,102.7 362,98.8 362,93.9C361.9,89 358,85.1 353.2,85.1ZM351.6,99.9C348,99.9 345.2,97 345.2,93.4C345.2,89.8 348.1,87 351.6,87C355.1,87 358.1,89.9 358.1,93.4C358.1,97 355.2,99.9 351.6,99.9Z"
          style="fill: rgb(217, 217, 217)"
        />
      </g>
      <g transform="matrix(1,0,0,0.997221,0.9,1.81879)">
        <path
          d="M351.6,87C348,87 345.2,89.9 345.2,93.4C345.2,97 348.1,99.9 351.6,99.9C355.1,99.9 358.1,97 358.1,93.4C358.1,89.9 355.2,87 351.6,87ZM351.6,98.9C348.6,98.9 346.2,96.5 346.2,93.4C346.2,90.4 348.6,88 351.6,88C354.6,88 357.1,90.4 357.1,93.4C357.1,96.5 354.7,98.9 351.6,98.9Z"
          style="fill: rgb(46, 47, 47)"
        />
      </g>
      <g transform="matrix(1,0,0,0.997221,0.9,1.81879)">
        <path
          d="M351.6,88C348.6,88 346.2,90.4 346.2,93.4C346.2,96.4 348.6,98.9 351.6,98.9C354.6,98.9 357.1,96.5 357.1,93.4C357.1,90.5 354.7,88 351.6,88ZM351.6,96.9C349.7,96.9 348.1,95.4 348.1,93.4C348.1,91.5 349.6,89.9 351.6,89.9C353.5,89.9 355.1,91.5 355.1,93.4C355.1,95.4 353.6,96.9 351.6,96.9Z"
          style="fill: rgb(217, 217, 217)"
        />
      </g>
      <g transform="matrix(1,0,0,0.997221,0.9,1.81879)">
        <path
          d="M351.6,90C349.7,90 348.1,91.6 348.1,93.5C348.1,95.4 349.6,97 351.6,97C353.5,97 355.1,95.5 355.1,93.5C355.1,91.5 353.6,90 351.6,90ZM351.6,95.9C350.2,95.9 349.1,94.8 349.1,93.4C349.1,92 350.2,90.9 351.6,90.9C353,90.9 354.1,92 354.1,93.4C354.1,94.8 353,95.9 351.6,95.9Z"
          style="fill: rgb(46, 47, 47)"
        />
      </g>
      <g transform="matrix(1,0,0,0.997221,0.9,1.81879)">
        <path
          d="M354.1,93.5C354.1,94.9 353,96 351.6,96C350.2,96 349.1,94.9 349.1,93.5C349.1,92.1 350.2,91 351.6,91C353,91 354.1,92.1 354.1,93.5Z"
          style="fill: transparent; fill-rule: nonzero"
        />
      </g>
    </g>
  </g>
</svg>
